<svg width="91" height="22" viewBox="0 0 91 22" fill="none" xmlns="http://www.w3.org/2000/svg">
<path d="M3.50001 21L6.49601 1.82C5.45068 2.23067 4.63868 2.856 4.06001 3.696C3.50001 4.51733 3.22001 5.52533 3.22001 6.72C3.22001 7.28 3.25735 7.74667 3.33201 8.12C3.42535 8.49333 3.52801 8.80133 3.64001 9.044C3.75201 9.28667 3.86401 9.48267 3.97601 9.632C4.08801 9.76267 4.17201 9.884 4.22801 9.996C3.14535 9.996 2.26801 9.744 1.59601 9.24C0.924013 8.736 0.588013 7.88667 0.588013 6.692C0.588013 5.87067 0.793346 5.05867 1.20401 4.256C1.61468 3.45333 2.15601 2.744 2.82801 2.128C3.51868 1.49333 4.30268 0.980002 5.18001 0.588001C6.07601 0.196001 7.00001 0 7.95201 0C8.71735 0 9.47335 0.130667 10.22 0.392L12.712 15.148L15.736 0.392H19.768L21.196 21H17.164L16.296 8.428L13.692 21H9.85601L7.72801 8.428L5.74001 21H3.50001Z" fill="white"/>
<path d="M23.0744 3.276C23.0744 2.66 23.2891 2.13734 23.7184 1.708C24.1478 1.26 24.6704 1.036 25.2864 1.036C25.9024 1.036 26.4251 1.26 26.8544 1.708C27.3024 2.13734 27.5264 2.66 27.5264 3.276C27.5264 3.892 27.3024 4.41467 26.8544 4.844C26.4251 5.27334 25.9024 5.488 25.2864 5.488C24.6704 5.488 24.1478 5.27334 23.7184 4.844C23.2891 4.41467 23.0744 3.892 23.0744 3.276ZM27.4144 7V16.52C27.4144 17.304 27.5171 17.8267 27.7224 18.088C27.9464 18.3307 28.3291 18.452 28.8704 18.452C29.1131 18.452 29.2904 18.4333 29.4024 18.396C29.5331 18.3587 29.6451 18.3213 29.7384 18.284C29.7571 18.3773 29.7664 18.4707 29.7664 18.564C29.7664 18.6573 29.7664 18.7507 29.7664 18.844C29.7664 19.3107 29.6824 19.6933 29.5144 19.992C29.3651 20.2907 29.1598 20.5333 28.8984 20.72C28.6558 20.888 28.3851 21 28.0864 21.056C27.8064 21.1307 27.5358 21.168 27.2744 21.168C25.8371 21.168 24.8291 20.776 24.2504 19.992C23.6718 19.1893 23.3824 18.1347 23.3824 16.828V7H27.4144Z" fill="white"/>
<path d="M48.6754 0.0560012V21H44.8114L38.4834 7.056V21H35.7954V2.016C34.9367 2.42667 34.2741 3.00533 33.8074 3.752C33.3407 4.49867 33.1074 5.432 33.1074 6.552C33.1074 7.14933 33.1447 7.644 33.2194 8.036C33.2941 8.40933 33.3781 8.71734 33.4714 8.96C33.5834 9.20267 33.6954 9.408 33.8074 9.576C33.9194 9.72534 34.0221 9.86534 34.1154 9.996C32.8834 9.996 31.9594 9.716 31.3434 9.156C30.7274 8.57734 30.4194 7.616 30.4194 6.272C30.4194 5.50667 30.5687 4.75067 30.8674 4.004C31.1661 3.25733 31.6047 2.58533 32.1834 1.988C32.7807 1.39067 33.5274 0.914668 34.4234 0.560001C35.3194 0.186667 36.3647 0 37.5594 0C37.7834 0 38.0727 0.0186672 38.4274 0.0560012C38.7821 0.093334 39.1741 0.205334 39.6034 0.392L46.1274 15.232V0.0560012H48.6754Z" fill="white"/>
<path d="M56.789 6.86C58.077 6.86 59.1037 7.21467 59.869 7.924C60.6344 8.61467 61.129 9.73467 61.353 11.284H61.549C61.8104 11.284 62.0997 11.2373 62.417 11.144C62.753 11.0507 63.0984 10.9293 63.453 10.78C63.8077 10.6307 64.153 10.4533 64.489 10.248C64.825 10.0427 65.1237 9.828 65.385 9.604L65.805 10.36C65.5997 10.6587 65.3384 10.9293 65.021 11.172C64.7224 11.4147 64.377 11.6387 63.985 11.844C63.593 12.0307 63.1824 12.1987 62.753 12.348C62.3237 12.4787 61.8944 12.5813 61.465 12.656C61.4837 12.7867 61.493 12.9173 61.493 13.048C61.493 13.16 61.493 13.2813 61.493 13.412C61.493 14.4947 61.3997 15.512 61.213 16.464C61.0264 17.3973 60.709 18.2187 60.261 18.928C59.8317 19.6187 59.2717 20.1693 58.581 20.58C57.8904 20.972 57.041 21.168 56.033 21.168C55.3424 21.168 54.6797 21.0653 54.045 20.86C53.429 20.636 52.8784 20.2813 52.393 19.796C51.9077 19.292 51.5157 18.6387 51.217 17.836C50.937 17.0147 50.797 16.016 50.797 14.84C50.797 14.0373 50.881 13.1787 51.049 12.264C51.217 11.3307 51.525 10.4627 51.973 9.66C52.421 8.85734 53.0277 8.19467 53.793 7.672C54.577 7.13067 55.5757 6.86 56.789 6.86ZM56.817 18.536C57.209 18.536 57.545 18.4053 57.825 18.144C58.1237 17.864 58.3664 17.4907 58.553 17.024C58.7397 16.5387 58.8704 15.9693 58.945 15.316C59.0384 14.6627 59.085 13.9533 59.085 13.188V12.768C58.6184 12.6747 58.3197 12.4973 58.189 12.236C58.0584 11.9747 57.993 11.6853 57.993 11.368C57.993 10.976 58.0584 10.6773 58.189 10.472C58.3197 10.2667 58.4877 10.1267 58.693 10.052C58.4877 9.41733 58.2357 9.00667 57.937 8.82C57.657 8.63333 57.4144 8.54 57.209 8.54C56.7984 8.54 56.4437 8.736 56.145 9.128C55.865 9.50133 55.6317 9.98667 55.445 10.584C55.2584 11.1627 55.1184 11.8067 55.025 12.516C54.9504 13.2253 54.913 13.9067 54.913 14.56C54.913 15.4 54.969 16.0813 55.081 16.604C55.2117 17.1267 55.3704 17.528 55.557 17.808C55.7437 18.088 55.949 18.284 56.173 18.396C56.397 18.4893 56.6117 18.536 56.817 18.536Z" fill="white"/>
<path d="M67.6097 2.576V7H69.3177V8.12H67.6097V16.52C67.6097 17.304 67.7124 17.8267 67.9177 18.088C68.1417 18.3307 68.5244 18.452 69.0657 18.452C69.6071 18.452 70.0551 18.2187 70.4097 17.752C70.7831 17.2853 70.9977 16.6973 71.0537 15.988H72.2297C72.0804 17.1267 71.8191 18.0413 71.4457 18.732C71.0724 19.404 70.6524 19.9267 70.1857 20.3C69.7191 20.6547 69.2431 20.888 68.7577 21C68.2724 21.112 67.8431 21.168 67.4697 21.168C66.0324 21.168 65.0244 20.776 64.4457 19.992C63.8671 19.1893 63.5777 18.1347 63.5777 16.828V8.12H62.6817V7H63.5777V3.136L67.6097 2.576Z" fill="white"/>
<path d="M77.4266 18.816C77.9866 18.816 78.4812 18.7413 78.9106 18.592C79.3399 18.4427 79.7226 18.2467 80.0586 18.004C80.3946 17.7427 80.7026 17.444 80.9826 17.108C81.2626 16.7533 81.5332 16.38 81.7946 15.988H82.7466C82.4852 16.6413 82.1679 17.276 81.7946 17.892C81.4399 18.508 80.9919 19.0587 80.4506 19.544C79.9279 20.0293 79.3119 20.4213 78.6026 20.72C77.8932 21.0187 77.0626 21.168 76.1106 21.168C75.3079 21.168 74.5706 21.0467 73.8986 20.804C73.2266 20.5613 72.6386 20.188 72.1346 19.684C71.6492 19.1613 71.2666 18.4987 70.9866 17.696C70.7252 16.8747 70.5946 15.8947 70.5946 14.756C70.5946 13.9533 70.6786 13.0947 70.8466 12.18C71.0332 11.2467 71.3506 10.388 71.7986 9.604C72.2466 8.82 72.8532 8.16667 73.6186 7.644C74.3839 7.12133 75.3546 6.86 76.5306 6.86C77.4266 6.86 78.1172 7 78.6026 7.28C79.0879 7.56 79.4426 7.88667 79.6666 8.26C79.9092 8.63333 80.0492 8.99733 80.0866 9.352C80.1426 9.70667 80.1706 9.95867 80.1706 10.108C80.1706 10.948 80.0119 11.6853 79.6946 12.32C79.3959 12.9547 78.9852 13.496 78.4626 13.944C77.9586 14.3733 77.3706 14.7093 76.6986 14.952C76.0452 15.176 75.3732 15.3067 74.6826 15.344C74.7012 16.5947 74.9066 17.4907 75.2986 18.032C75.7092 18.5547 76.4186 18.816 77.4266 18.816ZM78.0146 10.136C78.0146 9.48267 77.9026 9.02534 77.6786 8.764C77.4546 8.484 77.2119 8.344 76.9506 8.344C76.6332 8.344 76.3439 8.50267 76.0826 8.82C75.8212 9.11867 75.5879 9.52933 75.3826 10.052C75.1959 10.556 75.0372 11.1533 74.9066 11.844C74.7946 12.5347 74.7199 13.2533 74.6826 14C75.1492 13.9627 75.5879 13.8413 75.9986 13.636C76.4092 13.412 76.7639 13.132 77.0626 12.796C77.3612 12.4413 77.5946 12.04 77.7626 11.592C77.9306 11.144 78.0146 10.6587 78.0146 10.136Z" fill="white"/>
<path d="M88.3407 6.132C88.8073 7.94267 89.1993 9.41734 89.5167 10.556C89.834 11.676 90.086 12.6187 90.2727 13.384C90.4593 14.1307 90.59 14.784 90.6647 15.344C90.7393 15.904 90.7767 16.5293 90.7767 17.22C90.7767 17.948 90.6273 18.564 90.3287 19.068C90.03 19.572 89.6473 19.9827 89.1807 20.3C88.7327 20.5987 88.2287 20.8227 87.6687 20.972C87.1087 21.1027 86.5767 21.168 86.0727 21.168C85.2513 21.168 84.5327 21.0373 83.9167 20.776C83.3007 20.5147 82.7873 20.188 82.3767 19.796C81.966 19.3853 81.658 18.9373 81.4527 18.452C81.2473 17.948 81.1447 17.472 81.1447 17.024C81.1447 16.52 81.238 16.0907 81.4247 15.736C81.63 15.3813 81.882 15.1293 82.1807 14.98C82.722 13.58 83.17 12.1987 83.5247 10.836C83.898 9.45467 84.1593 8.07334 84.3087 6.692L88.3407 6.132ZM84.3927 16.24C84.3927 16.52 84.3087 16.7813 84.1407 17.024C83.9727 17.248 83.73 17.36 83.4127 17.36C83.2633 17.36 83.1047 17.3413 82.9367 17.304C82.7873 17.248 82.666 17.1453 82.5727 16.996C82.722 17.6493 82.9553 18.144 83.2727 18.48C83.6087 18.7973 84.0847 18.956 84.7007 18.956C85.242 18.956 85.7087 18.816 86.1007 18.536C86.4927 18.2373 86.6887 17.724 86.6887 16.996C86.6887 16.492 86.6607 16.044 86.6047 15.652C86.5487 15.2413 86.4553 14.784 86.3247 14.28C86.2127 13.776 86.054 13.1787 85.8487 12.488C85.662 11.7973 85.4287 10.9293 85.1487 9.884C84.962 10.78 84.7287 11.648 84.4487 12.488C84.1873 13.3093 83.9073 14.168 83.6087 15.064C83.814 15.1573 83.9913 15.3067 84.1407 15.512C84.3087 15.6987 84.3927 15.9413 84.3927 16.24Z" fill="white"/>
</svg>
